<svg width="49" height="64" viewBox="0 0 49 64" fill="none" xmlns="http://www.w3.org/2000/svg">
<path d="M24.3798 15.2404C30.8457 15.2404 37.0468 17.809 41.6189 22.3811C46.191 26.9532 48.7596 33.1543 48.7596 39.6202C48.7596 46.0861 46.191 52.2872 41.6189 56.8593C37.0468 61.4314 30.8457 64 24.3798 64C17.9139 64 11.7128 61.4314 7.14068 56.8593C2.56858 52.2872 0 46.0861 0 39.6202C0 33.1543 2.56858 26.9532 7.14068 22.3811C11.7128 17.809 17.9139 15.2404 24.3798 15.2404ZM24.3798 21.3354C19.5303 21.3354 14.8795 23.2618 11.4505 26.6909C8.02138 30.1199 6.09495 34.7708 6.09495 39.6202C6.09495 44.4697 8.02138 49.1205 11.4505 52.5495C14.8795 55.9786 19.5303 57.905 24.3798 57.905C29.2292 57.905 33.8801 55.9786 37.3091 52.5495C40.7382 49.1205 42.6646 44.4697 42.6646 39.6202C42.6646 34.7708 40.7382 30.1199 37.3091 26.6909C33.8801 23.2618 29.2292 21.3354 24.3798 21.3354ZM24.3798 25.9066L28.4116 34.0738L37.423 35.3842L30.9014 41.7382L32.4404 50.7161L24.3798 46.477L16.3192 50.713L17.8582 41.7382L11.3366 35.3812L20.348 34.0708L24.3798 25.9066ZM42.6646 0.00304762V9.14547L38.5109 12.6135C35.0641 10.8051 31.3008 9.67827 27.4273 9.29479V0.00304762H42.6646ZM21.3323 0V9.29479C17.46 9.6777 13.6979 10.8035 10.2517 12.6104L6.09495 9.14547V0.00304762L21.3323 0Z" fill="black"/>
</svg>
