<svg width="8" height="8" viewBox="0 0 8 8" fill="none" xmlns="http://www.w3.org/2000/svg">
<path d="M7.26785 3.34652H6.99935V3.33268H3.99935V4.66602H5.88318C5.60835 5.44218 4.86985 5.99935 3.99935 5.99935C2.89485 5.99935 1.99935 5.10385 1.99935 3.99935C1.99935 2.89485 2.89485 1.99935 3.99935 1.99935C4.50918 1.99935 4.97302 2.19168 5.32618 2.50585L6.26902 1.56302C5.67368 1.00818 4.87735 0.666016 3.99935 0.666016C2.15852 0.666016 0.666016 2.15852 0.666016 3.99935C0.666016 5.84018 2.15852 7.33268 3.99935 7.33268C5.84018 7.33268 7.33268 5.84018 7.33268 3.99935C7.33268 3.77585 7.30968 3.55768 7.26785 3.34652Z" fill="#FFC107"/>
<path d="M1.05078 2.44785L2.14595 3.25102C2.44228 2.51735 3.15995 1.99935 3.99978 1.99935C4.50961 1.99935 4.97345 2.19168 5.32661 2.50585L6.26945 1.56302C5.67411 1.00818 4.87778 0.666016 3.99978 0.666016C2.71945 0.666016 1.60911 1.38885 1.05078 2.44785Z" fill="#FF3D00"/>
<path d="M4.0007 7.33345C4.8617 7.33345 5.64404 7.00395 6.23554 6.46811L5.20387 5.59511C4.85796 5.85818 4.43528 6.00046 4.0007 6.00011C3.1337 6.00011 2.39754 5.44728 2.1202 4.67578L1.0332 5.51328C1.58487 6.59278 2.7052 7.33345 4.0007 7.33345Z" fill="#4CAF50"/>
<path d="M7.2685 3.34782H7V3.33398H4V4.66732H5.88383C5.75237 5.03672 5.51556 5.35951 5.20267 5.59582L5.20317 5.59548L6.23483 6.46848C6.16183 6.53482 7.33333 5.66732 7.33333 4.00065C7.33333 3.77715 7.31033 3.55898 7.2685 3.34782Z" fill="#1976D2"/>
</svg>
