<svg width="20" height="20" viewBox="0 0 20 20" fill="none" xmlns="http://www.w3.org/2000/svg">
<path d="M15.5543 16.6671H8.88759V12.2227H7.77648V16.6671H4.44314V12.2227H3.33203V16.6671C3.33203 16.9618 3.44909 17.2444 3.65747 17.4528C3.86584 17.6611 4.14846 17.7782 4.44314 17.7782H15.5543C15.8489 17.7782 16.1316 17.6611 16.3399 17.4528C16.5483 17.2444 16.6654 16.9618 16.6654 16.6671V12.2227H15.5543V16.6671Z" fill="black"/>
<path d="M18.7705 7.37266L16.5038 2.83932C16.4118 2.6542 16.27 2.49842 16.0944 2.38948C15.9187 2.28054 15.7161 2.22277 15.5094 2.22266H4.48716C4.28045 2.22277 4.07786 2.28054 3.90219 2.38948C3.72651 2.49842 3.5847 2.6542 3.49272 2.83932L1.22605 7.37266C1.14866 7.52793 1.1087 7.69917 1.10938 7.87266V9.58377C1.10888 9.84338 1.19929 10.095 1.36494 10.2949C1.60975 10.5755 1.91211 10.8001 2.25146 10.9535C2.59081 11.1069 2.9592 11.1854 3.33161 11.1838C3.93926 11.1847 4.52837 10.9746 4.99827 10.5893C5.46817 10.9748 6.05716 11.1855 6.66494 11.1855C7.27272 11.1855 7.86171 10.9748 8.33161 10.5893C8.8015 10.9748 9.39049 11.1855 9.99827 11.1855C10.6061 11.1855 11.195 10.9748 11.6649 10.5893C12.1348 10.9748 12.7238 11.1855 13.3316 11.1855C13.9394 11.1855 14.5284 10.9748 14.9983 10.5893C15.5228 11.02 16.1939 11.2305 16.8704 11.1767C17.547 11.1228 18.1763 10.8087 18.6261 10.3004C18.7937 10.1013 18.8861 9.84963 18.8872 9.58932V7.87266C18.8878 7.69917 18.8479 7.52793 18.7705 7.37266ZM16.6649 10.0727C16.4276 10.0721 16.1939 10.0148 15.9833 9.90563C15.7726 9.79643 15.5911 9.63846 15.4538 9.44488L14.9983 8.82266L14.5483 9.44488C14.4084 9.63549 14.2257 9.79049 14.0148 9.89732C13.8039 10.0042 13.5708 10.0598 13.3344 10.0598C13.098 10.0598 12.8649 10.0042 12.654 9.89732C12.4431 9.79049 12.2603 9.63549 12.1205 9.44488L11.6649 8.82266L11.2149 9.44488C11.0751 9.63549 10.8923 9.79049 10.6814 9.89732C10.4705 10.0042 10.2375 10.0598 10.001 10.0598C9.76464 10.0598 9.53156 10.0042 9.32067 9.89732C9.10978 9.79049 8.92701 9.63549 8.78716 9.44488L8.33161 8.82266L7.88161 9.44488C7.74176 9.63549 7.55899 9.79049 7.3481 9.89732C7.13721 10.0042 6.90413 10.0598 6.66772 10.0598C6.43131 10.0598 6.19822 10.0042 5.98733 9.89732C5.77644 9.79049 5.59367 9.63549 5.45383 9.44488L4.99827 8.82266L4.54272 9.44488C4.40548 9.63846 4.22396 9.79643 4.01329 9.90563C3.80262 10.0148 3.5689 10.0721 3.33161 10.0727C3.12224 10.0752 2.91475 10.0329 2.7231 9.94856C2.53144 9.86423 2.36007 9.73985 2.22049 9.58377V7.87266L4.48716 3.33377H15.5094L17.7761 7.8671V9.5671C17.6373 9.72537 17.4665 9.85231 17.2749 9.93947C17.0833 10.0266 16.8754 10.072 16.6649 10.0727Z" fill="black"/>
</svg>
