<svg width="47" height="12" viewBox="0 0 47 12" fill="none" xmlns="http://www.w3.org/2000/svg">
<g clip-path="url(#clip0_1433_1471)">
<path d="M2.72941 11.9408V11.1466C2.72941 10.8421 2.54932 10.6436 2.24065 10.6436C2.08634 10.6436 1.91914 10.6965 1.80338 10.8686C1.7134 10.723 1.58481 10.6436 1.3919 10.6436C1.26325 10.6436 1.13472 10.6832 1.03179 10.8289V10.67H0.761719V11.9408H1.03179V11.2392C1.03179 11.0142 1.14755 10.9083 1.32763 10.9083C1.5076 10.9083 1.5977 11.0274 1.5977 11.2392V11.9408H1.86777V11.2392C1.86777 11.0142 1.9963 10.9083 2.16349 10.9083C2.34358 10.9083 2.43356 11.0274 2.43356 11.2392V11.9408H2.72941ZM6.72893 10.67H6.29173V10.2861H6.02166V10.67H5.77731V10.9215H6.0216V11.504C6.0216 11.7953 6.13736 11.9673 6.44603 11.9673C6.56179 11.9673 6.69033 11.9276 6.78043 11.8747L6.70321 11.6364C6.62606 11.6893 6.53608 11.7026 6.47175 11.7026C6.34316 11.7026 6.29173 11.6232 6.29173 11.4907V10.9215H6.72893V10.67ZM9.01812 10.6435C8.86382 10.6435 8.76094 10.723 8.69662 10.8289V10.67H8.42655V11.9408H8.69662V11.226C8.69662 11.0142 8.7866 10.8951 8.9538 10.8951C9.00524 10.8951 9.06956 10.9083 9.121 10.9215L9.19815 10.6568C9.14671 10.6436 9.06956 10.6436 9.01812 10.6436V10.6435ZM5.55868 10.7759C5.43003 10.6832 5.25 10.6436 5.05709 10.6436C4.74847 10.6436 4.54273 10.8024 4.54273 11.0539C4.54273 11.2657 4.69704 11.3848 4.9671 11.4246L5.09569 11.4378C5.23717 11.4643 5.31433 11.504 5.31433 11.5702C5.31433 11.6628 5.21145 11.729 5.03137 11.729C4.85134 11.729 4.70987 11.6628 4.61982 11.5967L4.49123 11.8085C4.63271 11.9143 4.82563 11.9673 5.01848 11.9673C5.37859 11.9673 5.58439 11.7953 5.58439 11.5569C5.58439 11.3319 5.4172 11.2127 5.15996 11.1731L5.03137 11.1598C4.91561 11.1465 4.82563 11.1201 4.82563 11.0407C4.82563 10.948 4.91561 10.8951 5.05709 10.8951C5.21145 10.8951 5.36576 10.9612 5.44292 11.001L5.55868 10.7759ZM12.7348 10.6436C12.5804 10.6436 12.4776 10.723 12.4132 10.8289V10.67H12.1432V11.9408H12.4132V11.226C12.4132 11.0142 12.5033 10.8951 12.6704 10.8951C12.7219 10.8951 12.7862 10.9083 12.8377 10.9215L12.9148 10.6568C12.8634 10.6436 12.7862 10.6436 12.7348 10.6436ZM9.28819 11.3054C9.28819 11.6893 9.54537 11.9673 9.94409 11.9673C10.1241 11.9673 10.2527 11.9276 10.3813 11.8217L10.2527 11.5967C10.1498 11.6761 10.047 11.7158 9.9312 11.7158C9.71257 11.7158 9.55826 11.5569 9.55826 11.3054C9.55826 11.0672 9.71257 10.9083 9.9312 10.8951C10.047 10.8951 10.1498 10.9348 10.2527 11.0142L10.3813 10.7892C10.2527 10.6832 10.1241 10.6436 9.94409 10.6436C9.54537 10.6436 9.28819 10.9215 9.28819 11.3054ZM11.7831 11.3054V10.67H11.5131V10.8289C11.423 10.7098 11.2944 10.6436 11.1272 10.6436C10.78 10.6436 10.5099 10.9215 10.5099 11.3054C10.5099 11.6893 10.78 11.9673 11.1272 11.9673C11.3073 11.9673 11.4359 11.9011 11.5131 11.782V11.9408H11.7831V11.3054ZM10.7928 11.3054C10.7928 11.0804 10.9343 10.8951 11.1658 10.8951C11.3844 10.8951 11.5388 11.0672 11.5388 11.3054C11.5388 11.5305 11.3844 11.7158 11.1658 11.7158C10.9343 11.7025 10.7928 11.5305 10.7928 11.3054ZM7.56491 10.6436C7.2048 10.6436 6.94756 10.9083 6.94756 11.3054C6.94756 11.7026 7.20474 11.9673 7.57774 11.9673C7.75777 11.9673 7.93785 11.9143 8.07933 11.7953L7.95068 11.5967C7.84781 11.6761 7.71922 11.729 7.59063 11.729C7.42343 11.729 7.25624 11.6496 7.21763 11.4245H8.13077V11.3187C8.14366 10.9083 7.91213 10.6436 7.56485 10.6436H7.56491ZM7.56491 10.8818C7.73205 10.8818 7.84787 10.9878 7.87353 11.1863H7.23052C7.25624 11.0142 7.372 10.8818 7.56491 10.8818ZM14.2652 11.3054V10.167H13.9951V10.8289C13.9051 10.7098 13.7765 10.6436 13.6093 10.6436C13.2621 10.6436 12.992 10.9215 12.992 11.3054C12.992 11.6893 13.2621 11.9673 13.6093 11.9673C13.7894 11.9673 13.918 11.9011 13.9951 11.782V11.9408H14.2652V11.3054ZM13.2749 11.3054C13.2749 11.0804 13.4164 10.8951 13.6479 10.8951C13.8665 10.8951 14.0208 11.0672 14.0208 11.3054C14.0208 11.5305 13.8665 11.7158 13.6479 11.7158C13.4164 11.7025 13.2749 11.5305 13.2749 11.3054ZM4.24688 11.3054V10.67H3.97682V10.8289C3.88677 10.7098 3.75818 10.6436 3.59099 10.6436C3.24377 10.6436 2.9737 10.9215 2.9737 11.3054C2.9737 11.6893 3.24377 11.9673 3.59099 11.9673C3.77107 11.9673 3.89966 11.9011 3.97682 11.782V11.9408H4.24688V11.3054ZM3.24377 11.3054C3.24377 11.0804 3.38524 10.8951 3.61671 10.8951C3.83534 10.8951 3.9897 11.0672 3.9897 11.3054C3.9897 11.5305 3.83534 11.7158 3.61671 11.7158C3.38524 11.7025 3.24377 11.5305 3.24377 11.3054Z" fill="black"/>
<path d="M5.46875 1.01953H9.51977V8.51205H5.46875V1.01953Z" fill="#FF5F00"/>
<path d="M5.72292 4.76557C5.72292 3.24326 6.41737 1.89298 7.48475 1.01928C6.70032 0.383879 5.71009 0 4.62982 0C2.0705 0 0 2.13124 0 4.76557C0 7.39984 2.0705 9.53114 4.62976 9.53114C5.71003 9.53114 6.70026 9.14726 7.48475 8.5118C6.41737 7.65136 5.72292 6.28788 5.72292 4.76557Z" fill="#EB001B"/>
<path d="M14.9847 4.76557C14.9847 7.39984 12.9142 9.53114 10.355 9.53114C9.27472 9.53114 8.28449 9.14726 7.5 8.5118C8.58027 7.63815 9.26189 6.28788 9.26189 4.76557C9.26189 3.24326 8.56738 1.89298 7.5 1.01928C8.28443 0.383879 9.27472 0 10.355 0C12.9142 0 14.9848 2.1445 14.9848 4.76557H14.9847Z" fill="#F79E1B"/>
</g>
<path d="M35.4112 4.57928C35.3975 5.68925 36.3733 6.30863 37.1083 6.67692C37.8635 7.05475 38.1172 7.29706 38.1142 7.63499C38.1086 8.1521 37.5118 8.38034 36.9534 8.3892C35.9791 8.40472 35.4126 8.11875 34.9623 7.90246L34.6113 9.59104C35.0632 9.80511 35.8998 9.99181 36.7674 10C38.804 10 40.1363 8.96636 40.1435 7.36376C40.1515 5.32983 37.4074 5.21725 37.4261 4.30814C37.4326 4.03248 37.6884 3.73831 38.249 3.66352C38.5265 3.62574 39.2924 3.59682 40.1609 4.008L40.5017 2.37427C40.0347 2.19942 39.4345 2.032 38.6872 2.032C36.7703 2.032 35.4221 3.07971 35.4112 4.57928ZM43.7769 2.17272C43.405 2.17272 43.0916 2.39576 42.9518 2.73802L40.0427 9.88H42.0777L42.4827 8.72925H44.9695L45.2044 9.88H46.9981L45.4329 2.17272H43.7769ZM44.0616 4.25475L44.6489 7.14892H43.0405L44.0616 4.25475ZM32.9438 2.17282L31.3397 9.8799H33.279L34.8823 2.17263H32.9438M30.075 2.17263L28.0566 7.4186L27.2401 2.95817C27.1443 2.46024 26.7659 2.17272 26.3458 2.17272H23.0462L23 2.39653C23.6774 2.54766 24.447 2.79142 24.9133 3.05224C25.1986 3.21157 25.28 3.35084 25.3737 3.72945L26.9202 9.88H28.9695L32.1114 2.17272H30.075" fill="url(#paint0_linear_1433_1471)"/>
<defs>
<linearGradient id="paint0_linear_1433_1471" x1="34.0329" y1="10.1598" x2="34.27" y2="1.97696" gradientUnits="userSpaceOnUse">
<stop stop-color="#222357"/>
<stop offset="1" stop-color="#254AA5"/>
</linearGradient>
<clipPath id="clip0_1433_1471">
<rect width="15" height="12" fill="white"/>
</clipPath>
</defs>
</svg>
