<svg width="24" height="24" viewBox="0 0 24 24" fill="none" xmlns="http://www.w3.org/2000/svg">
<path d="M22 12C22 6.477 17.523 2 12 2C6.477 2 2 6.477 2 12C2 17.523 6.477 22 12 22" stroke="black" stroke-width="1.5" stroke-linecap="round" stroke-linejoin="round"/>
<path d="M12.9989 2.0498C12.9989 2.0498 15.9989 5.9998 15.9989 11.9998M10.9989 21.9498C10.9989 21.9498 7.99891 17.9998 7.99891 11.9998C7.99891 5.9998 10.9989 2.0498 10.9989 2.0498M2.62891 15.4998H11.9989M2.62891 8.4998H21.3689" stroke="black" stroke-width="1.5" stroke-linecap="round" stroke-linejoin="round"/>
<path d="M21.8792 17.9167C22.3732 18.2207 22.3422 18.9597 21.8342 19.0177L19.2672 19.3087L18.1162 21.6207C17.8882 22.0797 17.1832 21.8547 17.0662 21.2867L15.8112 15.1707C15.7122 14.6907 16.1442 14.3887 16.5612 14.6457L21.8792 17.9167V17.9167Z" stroke="black" stroke-width="1.5"/>
</svg>
