<svg width="24" height="24" viewBox="0 0 24 24" fill="none" xmlns="http://www.w3.org/2000/svg">
<path d="M3.75 4.5C2.51625 4.5 1.5 5.51625 1.5 6.75V17.25C1.5 18.4838 2.51625 19.5 3.75 19.5H20.25C21.4837 19.5 22.5 18.4838 22.5 17.25V6.75C22.5 5.51625 21.4837 4.5 20.25 4.5H3.75ZM3.75 6H20.25C20.6745 6 21 6.3255 21 6.75V17.25C21 17.6745 20.6745 18 20.25 18H3.75C3.3255 18 3 17.6745 3 17.25V6.75C3 6.3255 3.3255 6 3.75 6ZM8.2485 8.25C7.89975 8.25 7.5015 8.44875 7.2435 8.739C7.044 8.97975 6.82725 9.36225 6.90225 9.744C7.26 9.786 7.65075 9.56175 7.875 9.2715C8.124 9.00525 8.265 8.63175 8.2485 8.25ZM9.75 9.75V14.25H10.449V12.7087H11.4218C12.303 12.7087 12.9255 12.1027 12.9255 11.2297C12.9255 10.3485 12.3105 9.75 11.4375 9.75H9.75ZM5.8785 10.1423C5.0985 10.1423 4.5 10.8247 4.5 11.8035C4.5 13.0785 5.3955 14.25 5.955 14.25C6.2925 14.25 6.4155 14.0228 6.864 14.0228C7.27725 14.0228 7.40775 14.25 7.7595 14.25C8.427 14.25 8.979 12.8925 9 12.81C8.88975 12.7545 8.24775 12.4522 8.2485 11.7217C8.2485 11.0122 8.83425 10.6942 8.862 10.68C8.538 10.1977 8.028 10.1423 7.83525 10.1423C7.3875 10.1423 6.996 10.3845 6.78225 10.3845C6.56175 10.3845 6.237 10.1423 5.8785 10.1423ZM10.449 10.3403H11.2545C11.8612 10.3403 12.2108 10.6642 12.2108 11.2297C12.2108 11.7952 11.8612 12.1275 11.2545 12.1275H10.449V10.3403ZM14.5725 10.8983C13.833 10.8983 13.2833 11.3228 13.2675 11.9047H13.8983C13.9485 11.6302 14.2058 11.4472 14.5545 11.4472C14.9865 11.4472 15.2213 11.6475 15.2213 12.0135V12.2625L14.3483 12.321C13.542 12.3712 13.1002 12.7035 13.1002 13.2772C13.1002 13.8592 13.5495 14.25 14.1975 14.25C14.6378 14.25 15.0465 14.025 15.2288 13.6755H15.2445V14.2162H15.8932V11.9722C15.8932 11.3235 15.3705 10.8983 14.5725 10.8983ZM16.1805 10.941L17.361 14.2252L17.3025 14.424C17.1945 14.757 17.0198 14.8905 16.7123 14.8905C16.6545 14.8905 16.5472 14.8815 16.506 14.8815V15.4215C16.548 15.4298 16.7205 15.438 16.7708 15.438C17.4532 15.438 17.7773 15.1725 18.0607 14.391L19.2817 10.941H18.5745L17.7525 13.6012H17.7345L16.9132 10.941H16.1805ZM15.2205 12.735V12.9855H15.2197C15.2197 13.4092 14.8628 13.7078 14.3895 13.7078C14.0145 13.7078 13.7828 13.5345 13.7828 13.26C13.7828 12.9773 14.007 12.81 14.448 12.7853L15.2205 12.735Z" fill="black"/>
</svg>
