<svg width="12" height="12" viewBox="0 0 12 12" fill="none" xmlns="http://www.w3.org/2000/svg">
<path d="M6 0.375C3.41512 0.375 1.3125 2.478 1.3125 5.0625C1.3125 7.647 3.41531 9.75 6 9.75C8.58488 9.75 10.6875 7.647 10.6875 5.0625C10.6875 2.478 8.58469 0.375 6 0.375ZM6 8.81269C3.93206 8.81269 2.24981 7.13044 2.24981 5.0625C2.24981 2.99494 3.93187 1.31269 6 1.31269C8.06775 1.31269 9.74981 2.99494 9.74981 5.0625C9.74963 7.13044 8.06756 8.81269 6 8.81269Z" fill="white"/>
<path d="M4.76519 3.62569C4.93884 3.4416 5.14638 3.29275 5.37644 3.18731C5.61126 3.07943 5.8669 3.02439 6.12531 3.02606C6.45325 3.02606 6.75419 3.10425 7.0285 3.26062C7.29891 3.41355 7.52931 3.62827 7.70087 3.88725L8.36912 3.38756C8.11525 3.04095 7.78538 2.75708 7.40481 2.55769C7.01819 2.35256 6.59144 2.25 6.12512 2.25C5.74094 2.25 5.37981 2.32425 5.04194 2.47312C4.71167 2.61595 4.41173 2.82056 4.15825 3.07594C3.90513 3.33285 3.70306 3.63545 3.56275 3.96769C3.41669 4.30781 3.34375 4.67325 3.34375 5.06269C3.34375 5.45175 3.41669 5.81681 3.56275 6.15787C3.70291 6.48997 3.90501 6.79236 4.15825 7.04888C4.41175 7.30443 4.71167 7.50927 5.04194 7.65244C5.38 7.80056 5.74112 7.875 6.12512 7.875C6.59144 7.875 7.018 7.77244 7.40481 7.56713C7.78559 7.36804 8.11552 7.08411 8.36912 6.73725L7.70087 6.23831C7.52902 6.4969 7.29868 6.71138 7.0285 6.86438C6.75419 7.02056 6.45325 7.09875 6.12531 7.09875C5.86689 7.10052 5.61123 7.04547 5.37644 6.9375C5.14634 6.83212 4.93879 6.68327 4.76519 6.49912C4.59119 6.31537 4.45281 6.09956 4.35025 5.85394C4.24769 5.60831 4.1965 5.34412 4.1965 5.06269C4.1965 4.78069 4.24769 4.51687 4.35025 4.27106C4.45281 4.02525 4.59119 3.81019 4.76519 3.62569Z" fill="white"/>
</svg>
