<svg width="25" height="24" viewBox="0 0 25 24" fill="none" xmlns="http://www.w3.org/2000/svg">
<g clip-path="url(#clip0_963_1464)">
<path d="M23.2181 15.7681L22.9931 14.6431H20.4791L20.0791 15.7601L18.0641 15.7641C19.0234 13.4573 19.9847 11.1513 20.9481 8.84612C21.1121 8.45512 21.4031 8.25612 21.8321 8.25812C22.1601 8.26112 22.6951 8.26112 23.4381 8.25912L24.9961 15.7651L23.2181 15.7681ZM21.0451 13.1021H22.6651L22.0601 10.2821L21.0451 13.1021ZM8.05609 8.25712L10.0821 8.25912L6.95009 15.7691L4.89909 15.7671C4.38334 13.7834 3.87401 11.7981 3.37109 9.81112C3.27109 9.41512 3.07309 9.13812 2.69209 9.00712C2.12932 8.81854 1.56393 8.63786 0.996094 8.46512L0.996094 8.26012H4.23309C4.79309 8.26012 5.12009 8.53112 5.22509 9.08712C5.33109 9.64412 5.59709 11.0621 6.02509 13.3411L8.05609 8.25712ZM12.8661 8.25912L11.2641 15.7671L9.33609 15.7651L10.9361 8.25712L12.8661 8.25912ZM16.7761 8.12012C17.3531 8.12012 18.0801 8.30012 18.4981 8.46512L18.1601 10.0221C17.7821 9.87012 17.1601 9.66512 16.6371 9.67212C15.8771 9.68512 15.4071 10.0041 15.4071 10.3101C15.4071 10.8081 16.2231 11.0591 17.0631 11.6031C18.0221 12.2231 18.1481 12.7801 18.1361 13.3851C18.1231 14.6411 17.0631 15.8801 14.8271 15.8801C13.8071 15.8651 13.4391 15.7791 12.6071 15.4841L12.9591 13.8591C13.8061 14.2141 14.1651 14.3271 14.8891 14.3271C15.5521 14.3271 16.1211 14.0591 16.1261 13.5921C16.1301 13.2601 15.9261 13.0951 15.1821 12.6851C14.4381 12.2741 13.3941 11.7051 13.4081 10.5631C13.4251 9.10112 14.8101 8.12012 16.7771 8.12012H16.7761Z" fill="white"/>
</g>
<defs>
<clipPath id="clip0_963_1464">
<rect width="24" height="24" fill="white" transform="translate(0.996094)"/>
</clipPath>
</defs>
</svg>
