<svg width="25" height="24" viewBox="0 0 25 24" fill="none" xmlns="http://www.w3.org/2000/svg">
<path d="M20.6503 7.58694C20.4493 7.36707 20.2196 7.17534 19.9673 7.01694C20.0823 6.4029 20.0563 5.77074 19.8912 5.16822C19.7261 4.56571 19.4263 4.00859 19.0143 3.53894C18.0763 2.47894 16.4383 1.93994 14.1453 1.93994H8.26131C7.60131 1.94194 7.04131 2.42094 6.93731 3.07194L4.48431 18.6619C4.46035 18.8062 4.4681 18.954 4.50703 19.095C4.54595 19.2359 4.61512 19.3667 4.70972 19.4783C4.80432 19.5898 4.92208 19.6794 5.05481 19.7408C5.18754 19.8023 5.33206 19.834 5.47831 19.8339H8.52631L8.36631 20.8479C8.34512 20.9825 8.35328 21.1201 8.39022 21.2512C8.42717 21.3824 8.49203 21.5039 8.58036 21.6077C8.66869 21.7114 8.77841 21.7948 8.90199 21.8521C9.02556 21.9095 9.16008 21.9394 9.29631 21.9399H12.3603C12.6531 21.9411 12.9367 21.8379 13.1601 21.6487C13.3835 21.4595 13.5322 21.1969 13.5793 20.9079L14.1853 17.0809L14.2263 16.8639C14.2345 16.8078 14.2627 16.7564 14.3056 16.7193C14.3486 16.6822 14.4035 16.6618 14.4603 16.6619H14.9183C18.5473 16.6619 20.7213 14.9419 21.3803 11.5499C21.5767 10.8783 21.6131 10.1701 21.4865 9.48185C21.3599 8.79366 21.0739 8.14468 20.6513 7.58694H20.6503ZM8.88731 17.5269L8.68131 18.8329L5.47131 18.8229L7.92631 3.22294C7.93939 3.14364 7.98029 3.0716 8.04169 3.01974C8.10308 2.96787 8.18095 2.93958 8.26131 2.93994H14.1453C16.1403 2.93994 17.5253 3.36394 18.2623 4.19994C18.9643 5.02494 19.2173 6.14194 18.9393 7.18994H18.9413C18.9245 7.29892 18.9059 7.40761 18.8853 7.51594L18.8843 7.51894C18.2343 10.8659 16.1633 12.4939 12.5513 12.4939H10.8233C10.5032 12.4932 10.1936 12.6076 9.95071 12.8161C9.70787 13.0246 9.54802 13.3134 9.50031 13.6299L8.88731 17.5259V17.5269ZM20.3973 11.3589C19.8343 14.2549 18.0423 15.6619 14.9173 15.6619H14.4593C14.1664 15.6603 13.8826 15.7635 13.6591 15.9527C13.4356 16.1419 13.2871 16.4048 13.2403 16.6939L12.6253 20.5669L12.5933 20.7379C12.5849 20.7942 12.5565 20.8456 12.5134 20.8827C12.4703 20.9198 12.4152 20.9401 12.3583 20.9399L9.35331 21.0049L9.95831 17.1559L10.4923 13.7859H10.4883V13.7839C10.5003 13.7035 10.5406 13.6301 10.6021 13.5769C10.6635 13.5237 10.742 13.4943 10.8233 13.4939H12.5513C16.5113 13.4939 18.9413 11.6869 19.7783 8.11894C19.8203 8.15994 19.8603 8.20194 19.8983 8.24494C20.5483 9.14594 20.7323 10.3009 20.3963 11.3589H20.3973Z" fill="white"/>
</svg>
