<svg width="48" height="48" viewBox="0 0 48 48" fill="none" xmlns="http://www.w3.org/2000/svg">
<path d="M24 0C10.7437 0 0 10.7437 0 24V46.5C0 47.3312 0.66875 48 1.5 48H13C15.2063 48 17 46.2062 17 44V31C17 28.7938 15.2063 27 13 27H4.5V24C4.5 13.2312 13.2312 4.5 24 4.5C34.7687 4.5 43.5 13.2312 43.5 24V27H35C32.7938 27 31 28.7938 31 31V44C31 46.2062 32.7938 48 35 48H46.5C47.3312 48 48 47.3312 48 46.5V24C48 10.7437 37.2562 0 24 0ZM12.5 31.5V43.5H4.5V31.5H12.5ZM43.5 43.5H35.5V31.5H43.5V43.5Z" fill="white"/>
</svg>
