<svg width="19" height="19" viewBox="0 0 19 19" fill="none" xmlns="http://www.w3.org/2000/svg">
<path d="M3.3333 4.34501L0.630798 1.64334L1.80996 0.464172L4.51163 3.16667H17.2133C17.3432 3.16666 17.4713 3.19702 17.5874 3.25531C17.7034 3.31361 17.8043 3.39823 17.8818 3.50242C17.9594 3.60661 18.0115 3.72749 18.034 3.85541C18.0566 3.98333 18.0489 4.11475 18.0116 4.23917L16.0116 10.9058C15.9602 11.0776 15.8547 11.2281 15.7109 11.3352C15.5671 11.4422 15.3926 11.5 15.2133 11.5H4.99996V13.1667H14.1666V14.8333H4.16663C3.94562 14.8333 3.73366 14.7455 3.57738 14.5893C3.4211 14.433 3.3333 14.221 3.3333 14V4.34501ZM4.99996 4.83334V9.83334H14.5933L16.0933 4.83334H4.99996ZM4.5833 18.1667C4.25178 18.1667 3.93384 18.035 3.69941 17.8006C3.46499 17.5661 3.3333 17.2482 3.3333 16.9167C3.3333 16.5852 3.46499 16.2672 3.69941 16.0328C3.93384 15.7984 4.25178 15.6667 4.5833 15.6667C4.91482 15.6667 5.23276 15.7984 5.46718 16.0328C5.7016 16.2672 5.8333 16.5852 5.8333 16.9167C5.8333 17.2482 5.7016 17.5661 5.46718 17.8006C5.23276 18.035 4.91482 18.1667 4.5833 18.1667ZM14.5833 18.1667C14.2518 18.1667 13.9338 18.035 13.6994 17.8006C13.465 17.5661 13.3333 17.2482 13.3333 16.9167C13.3333 16.5852 13.465 16.2672 13.6994 16.0328C13.9338 15.7984 14.2518 15.6667 14.5833 15.6667C14.9148 15.6667 15.2328 15.7984 15.4672 16.0328C15.7016 16.2672 15.8333 16.5852 15.8333 16.9167C15.8333 17.2482 15.7016 17.5661 15.4672 17.8006C15.2328 18.035 14.9148 18.1667 14.5833 18.1667Z" fill="#4D4B48"/>
</svg>
