<svg width="14" height="19" viewBox="0 0 14 19" fill="none" xmlns="http://www.w3.org/2000/svg">
<path d="M13.6666 18.3333H12V16.6667C12 16.0036 11.7366 15.3678 11.2677 14.8989C10.7989 14.4301 10.163 14.1667 9.49998 14.1667H4.49998C3.83694 14.1667 3.20105 14.4301 2.73221 14.8989C2.26337 15.3678 1.99998 16.0036 1.99998 16.6667V18.3333H0.333313V16.6667C0.333313 15.5616 0.7723 14.5018 1.5537 13.7204C2.3351 12.939 3.39491 12.5 4.49998 12.5H9.49998C10.605 12.5 11.6649 12.939 12.4463 13.7204C13.2277 14.5018 13.6666 15.5616 13.6666 16.6667V18.3333ZM6.99998 10.8333C6.34337 10.8333 5.69319 10.704 5.08656 10.4527C4.47993 10.2015 3.92874 9.83317 3.46445 9.36888C3.00015 8.90458 2.63186 8.35339 2.38058 7.74676C2.12931 7.14013 1.99998 6.48995 1.99998 5.83334C1.99998 5.17673 2.12931 4.52655 2.38058 3.91993C2.63186 3.3133 3.00015 2.7621 3.46445 2.29781C3.92874 1.83352 4.47993 1.46522 5.08656 1.21395C5.69319 0.962672 6.34337 0.833343 6.99998 0.833344C8.32606 0.833344 9.59783 1.36013 10.5355 2.29781C11.4732 3.23549 12 4.50726 12 5.83334C12 7.15943 11.4732 8.4312 10.5355 9.36888C9.59783 10.3066 8.32606 10.8333 6.99998 10.8333ZM6.99998 9.16668C7.88403 9.16668 8.73188 8.81549 9.357 8.19037C9.98212 7.56524 10.3333 6.7174 10.3333 5.83334C10.3333 4.94929 9.98212 4.10144 9.357 3.47632C8.73188 2.8512 7.88403 2.50001 6.99998 2.50001C6.11592 2.50001 5.26808 2.8512 4.64296 3.47632C4.01784 4.10144 3.66665 4.94929 3.66665 5.83334C3.66665 6.7174 4.01784 7.56524 4.64296 8.19037C5.26808 8.81549 6.11592 9.16668 6.99998 9.16668Z" fill="#4D4B48"/>
</svg>
