<svg width="22" height="11" viewBox="0 0 22 11" fill="none" xmlns="http://www.w3.org/2000/svg">
<path d="M10.9977 1.12659C11.8074 1.61907 12.4618 2.24783 12.9116 2.96528C13.3614 3.68272 13.5946 4.47005 13.5937 5.26766C13.5943 6.06502 13.3609 6.85204 12.9112 7.5692C12.4614 8.28636 11.8071 8.91487 10.9977 9.40719C10.1881 8.91479 9.53374 8.28615 9.08399 7.56885C8.63424 6.85155 8.40092 6.06437 8.40168 5.26689C8.40092 4.4694 8.63424 3.68223 9.08399 2.96493C9.53374 2.24763 10.1881 1.61899 10.9977 1.12659ZM10.1277 0.675593C9.27064 1.24249 8.58266 1.94684 8.11131 2.73995C7.63996 3.53307 7.39648 4.39604 7.39768 5.26921C7.39652 6.14201 7.63983 7.0046 8.11082 7.79743C8.58181 8.59025 9.26926 9.29441 10.1257 9.86129C9.09107 10.3113 7.92246 10.5437 6.73602 10.5354C5.54958 10.527 4.38664 10.2781 3.36279 9.81351C2.33893 9.3489 1.48983 8.68474 0.899887 7.88703C0.309942 7.08933 -0.000300057 6.18587 2.17764e-07 5.26645C0.000300493 4.34704 0.311133 3.4437 0.901598 2.64623C1.49206 1.84875 2.3416 1.18492 3.36576 0.720721C4.38991 0.256518 5.55302 0.00811222 6.73946 0.000195346C7.92591 -0.00772153 9.09436 0.225126 10.1287 0.675593H10.1277ZM11.8697 9.86129C12.7261 9.29441 13.4136 8.59025 13.8845 7.79743C14.3555 7.0046 14.5989 6.14201 14.5977 5.26921C14.5989 4.39604 14.3554 3.53307 13.8841 2.73995C13.4127 1.94684 12.7247 1.24249 11.8677 0.675593C12.902 0.225126 14.0705 -0.00772153 15.2569 0.000195346C16.4433 0.00811222 17.6065 0.256518 18.6306 0.720721C19.6548 1.18492 20.5043 1.84875 21.0948 2.64623C21.6852 3.4437 21.9961 4.34704 21.9964 5.26645C21.9967 6.18587 21.6864 7.08933 21.0965 7.88703C20.5065 8.68474 19.6574 9.3489 18.6336 9.81351C17.6097 10.2781 16.4468 10.527 15.2603 10.5354C14.0739 10.5437 12.9053 10.3113 11.8707 9.86129H11.8697Z" fill="white"/>
</svg>
